<svg width="111" height="111" viewBox="0 0 111 111" fill="none" xmlns="http://www.w3.org/2000/svg">
<rect x="0.5" y="0.5" width="110" height="110" rx="17.5" fill="#151515" stroke="#939393"/>
<path d="M20.2167 98.098C20.002 98.098 19.834 98.0373 19.7127 97.916C19.5914 97.7947 19.5307 97.622 19.5307 97.398V88.83C19.5307 88.606 19.5914 88.4333 19.7127 88.312C19.834 88.1907 20.0067 88.13 20.2307 88.13H25.2567C25.4434 88.13 25.5834 88.1767 25.6767 88.27C25.77 88.354 25.8167 88.48 25.8167 88.648C25.8167 88.8253 25.77 88.9607 25.6767 89.054C25.5834 89.1473 25.4434 89.194 25.2567 89.194H20.8327V92.498H24.9767C25.154 92.498 25.2894 92.5447 25.3827 92.638C25.476 92.7313 25.5227 92.8573 25.5227 93.016C25.5227 93.1933 25.476 93.3287 25.3827 93.422C25.2894 93.5153 25.154 93.562 24.9767 93.562H20.8327V97.398C20.8327 97.8647 20.6274 98.098 20.2167 98.098ZM27.7349 98.098C27.5203 98.098 27.3569 98.042 27.2449 97.93C27.1329 97.818 27.0769 97.6547 27.0769 97.44V91.728C27.0769 91.5133 27.1329 91.3547 27.2449 91.252C27.3569 91.14 27.5109 91.084 27.7069 91.084C27.9029 91.084 28.0523 91.14 28.1549 91.252C28.2669 91.3547 28.3229 91.5133 28.3229 91.728V92.806H28.1829C28.3323 92.246 28.6123 91.8213 29.0229 91.532C29.4336 91.2427 29.9516 91.0793 30.5769 91.042C30.7263 91.0327 30.8476 91.07 30.9409 91.154C31.0343 91.2287 31.0856 91.3593 31.0949 91.546C31.1043 91.7233 31.0623 91.868 30.9689 91.98C30.8756 92.0827 30.7309 92.1433 30.5349 92.162L30.2829 92.176C29.6669 92.2413 29.1909 92.442 28.8549 92.778C28.5283 93.114 28.3649 93.576 28.3649 94.164V97.44C28.3649 97.6547 28.3089 97.818 28.1969 97.93C28.0943 98.042 27.9403 98.098 27.7349 98.098ZM35.1325 98.126C34.4605 98.126 33.8772 97.9813 33.3825 97.692C32.8878 97.4027 32.5052 96.992 32.2345 96.46C31.9638 95.928 31.8285 95.3027 31.8285 94.584C31.8285 94.0427 31.9032 93.5573 32.0525 93.128C32.2112 92.6893 32.4352 92.316 32.7245 92.008C33.0138 91.7 33.3592 91.4667 33.7605 91.308C34.1712 91.14 34.6285 91.056 35.1325 91.056C35.8045 91.056 36.3878 91.2007 36.8825 91.49C37.3772 91.7793 37.7598 92.19 38.0305 92.722C38.3012 93.2447 38.4365 93.8653 38.4365 94.584C38.4365 95.1253 38.3572 95.6153 38.1985 96.054C38.0492 96.4927 37.8298 96.866 37.5405 97.174C37.2512 97.482 36.9012 97.72 36.4905 97.888C36.0892 98.0467 35.6365 98.126 35.1325 98.126ZM35.1325 97.118C35.5432 97.118 35.8978 97.02 36.1965 96.824C36.5045 96.628 36.7378 96.3433 36.8965 95.97C37.0645 95.5967 37.1485 95.1347 37.1485 94.584C37.1485 93.7627 36.9665 93.1373 36.6025 92.708C36.2385 92.2787 35.7485 92.064 35.1325 92.064C34.7312 92.064 34.3765 92.162 34.0685 92.358C33.7698 92.5447 33.5365 92.8247 33.3685 93.198C33.2005 93.5713 33.1165 94.0333 33.1165 94.584C33.1165 95.4053 33.2985 96.0353 33.6625 96.474C34.0358 96.9033 34.5258 97.118 35.1325 97.118ZM40.8665 98.098C40.6705 98.098 40.5165 98.042 40.4045 97.93C40.2925 97.818 40.2365 97.6547 40.2365 97.44V91.728C40.2365 91.5133 40.2925 91.3547 40.4045 91.252C40.5165 91.14 40.6705 91.084 40.8665 91.084C41.0625 91.084 41.2118 91.14 41.3145 91.252C41.4265 91.3547 41.4825 91.5133 41.4825 91.728V92.918L41.3285 92.666C41.5058 92.1527 41.7905 91.756 42.1825 91.476C42.5838 91.196 43.0598 91.056 43.6105 91.056C44.1892 91.056 44.6558 91.196 45.0105 91.476C45.3652 91.7467 45.6032 92.162 45.7245 92.722H45.5285C45.6965 92.2087 45.9952 91.8027 46.4245 91.504C46.8632 91.2053 47.3718 91.056 47.9505 91.056C48.4638 91.056 48.8838 91.1587 49.2105 91.364C49.5465 91.56 49.7985 91.8587 49.9665 92.26C50.1345 92.652 50.2185 93.156 50.2185 93.772V97.44C50.2185 97.6547 50.1625 97.818 50.0505 97.93C49.9385 98.042 49.7845 98.098 49.5885 98.098C49.3832 98.098 49.2245 98.042 49.1125 97.93C49.0005 97.818 48.9445 97.6547 48.9445 97.44V93.828C48.9445 93.2307 48.8418 92.792 48.6365 92.512C48.4312 92.232 48.0858 92.092 47.6005 92.092C47.0685 92.092 46.6438 92.2787 46.3265 92.652C46.0185 93.016 45.8645 93.52 45.8645 94.164V97.44C45.8645 97.6547 45.8085 97.818 45.6965 97.93C45.5938 98.042 45.4398 98.098 45.2345 98.098C45.0292 98.098 44.8705 98.042 44.7585 97.93C44.6465 97.818 44.5905 97.6547 44.5905 97.44V93.828C44.5905 93.2307 44.4878 92.792 44.2825 92.512C44.0772 92.232 43.7318 92.092 43.2465 92.092C42.7145 92.092 42.2898 92.2787 41.9725 92.652C41.6645 93.016 41.5105 93.52 41.5105 94.164V97.44C41.5105 97.8787 41.2958 98.098 40.8665 98.098ZM57.0095 98.098C56.8041 98.098 56.6455 98.042 56.5335 97.93C56.4215 97.8087 56.3655 97.6407 56.3655 97.426V88.704C56.3655 88.48 56.4215 88.312 56.5335 88.2C56.6455 88.088 56.8041 88.032 57.0095 88.032C57.2241 88.032 57.3875 88.088 57.4995 88.2C57.6115 88.312 57.6675 88.48 57.6675 88.704V97.426C57.6675 97.6407 57.6115 97.8087 57.4995 97.93C57.3968 98.042 57.2335 98.098 57.0095 98.098ZM60.6595 98.098C60.4635 98.098 60.3095 98.042 60.1975 97.93C60.0855 97.818 60.0295 97.6547 60.0295 97.44V91.728C60.0295 91.5133 60.0855 91.3547 60.1975 91.252C60.3095 91.14 60.4635 91.084 60.6595 91.084C60.8555 91.084 61.0049 91.14 61.1075 91.252C61.2195 91.3547 61.2755 91.5133 61.2755 91.728V92.918L61.1215 92.666C61.2989 92.1527 61.5835 91.756 61.9755 91.476C62.3769 91.196 62.8529 91.056 63.4035 91.056C63.9822 91.056 64.4489 91.196 64.8035 91.476C65.1582 91.7467 65.3962 92.162 65.5175 92.722H65.3215C65.4895 92.2087 65.7882 91.8027 66.2175 91.504C66.6562 91.2053 67.1649 91.056 67.7435 91.056C68.2569 91.056 68.6769 91.1587 69.0035 91.364C69.3395 91.56 69.5915 91.8587 69.7595 92.26C69.9275 92.652 70.0115 93.156 70.0115 93.772V97.44C70.0115 97.6547 69.9555 97.818 69.8435 97.93C69.7315 98.042 69.5775 98.098 69.3815 98.098C69.1762 98.098 69.0175 98.042 68.9055 97.93C68.7935 97.818 68.7375 97.6547 68.7375 97.44V93.828C68.7375 93.2307 68.6349 92.792 68.4295 92.512C68.2242 92.232 67.8789 92.092 67.3935 92.092C66.8615 92.092 66.4369 92.2787 66.1195 92.652C65.8115 93.016 65.6575 93.52 65.6575 94.164V97.44C65.6575 97.6547 65.6015 97.818 65.4895 97.93C65.3869 98.042 65.2329 98.098 65.0275 98.098C64.8222 98.098 64.6635 98.042 64.5515 97.93C64.4395 97.818 64.3835 97.6547 64.3835 97.44V93.828C64.3835 93.2307 64.2809 92.792 64.0755 92.512C63.8702 92.232 63.5249 92.092 63.0395 92.092C62.5075 92.092 62.0829 92.2787 61.7655 92.652C61.4575 93.016 61.3035 93.52 61.3035 94.164V97.44C61.3035 97.8787 61.0889 98.098 60.6595 98.098ZM74.3701 98.126C73.9035 98.126 73.4788 98.0327 73.0961 97.846C72.7228 97.6593 72.4288 97.4073 72.2141 97.09C72.0088 96.7727 71.9061 96.418 71.9061 96.026C71.9061 95.522 72.0321 95.1253 72.2841 94.836C72.5361 94.5467 72.9608 94.3413 73.5581 94.22C74.1555 94.0893 74.9581 94.024 75.9661 94.024H76.6241V94.836H75.9941C75.2755 94.836 74.7061 94.8687 74.2861 94.934C73.8755 94.9993 73.5861 95.116 73.4181 95.284C73.2501 95.4427 73.1661 95.6667 73.1661 95.956C73.1661 96.32 73.2921 96.6187 73.5441 96.852C73.8055 97.0853 74.1601 97.202 74.6081 97.202C74.9628 97.202 75.2755 97.118 75.5461 96.95C75.8168 96.7727 76.0315 96.5393 76.1901 96.25C76.3488 95.9513 76.4281 95.6107 76.4281 95.228V93.618C76.4281 93.0673 76.3161 92.6707 76.0921 92.428C75.8681 92.176 75.4901 92.05 74.9581 92.05C74.6501 92.05 74.3328 92.092 74.0061 92.176C73.6795 92.26 73.3388 92.3907 72.9841 92.568C72.8441 92.6333 72.7228 92.6567 72.6201 92.638C72.5175 92.61 72.4335 92.554 72.3681 92.47C72.3121 92.3767 72.2795 92.2787 72.2701 92.176C72.2701 92.064 72.2935 91.9567 72.3401 91.854C72.3961 91.7513 72.4895 91.6767 72.6201 91.63C73.0308 91.4247 73.4368 91.28 73.8381 91.196C74.2488 91.1027 74.6315 91.056 74.9861 91.056C75.5928 91.056 76.0921 91.154 76.4841 91.35C76.8761 91.5367 77.1701 91.8307 77.3661 92.232C77.5621 92.624 77.6601 93.128 77.6601 93.744V97.44C77.6601 97.6547 77.6088 97.818 77.5061 97.93C77.4035 98.042 77.2541 98.098 77.0581 98.098C76.8715 98.098 76.7221 98.042 76.6101 97.93C76.5075 97.818 76.4561 97.6547 76.4561 97.44V96.446H76.5821C76.5075 96.7913 76.3675 97.09 76.1621 97.342C75.9568 97.594 75.7001 97.79 75.3921 97.93C75.0935 98.0607 74.7528 98.126 74.3701 98.126ZM82.871 100.646C82.367 100.646 81.877 100.59 81.401 100.478C80.9343 100.366 80.5096 100.193 80.127 99.96C80.0056 99.8853 79.9216 99.7967 79.875 99.694C79.8376 99.6007 79.8283 99.5027 79.847 99.4C79.875 99.2973 79.9216 99.204 79.987 99.12C80.0616 99.0453 80.1456 98.994 80.239 98.966C80.3416 98.9473 80.4443 98.9707 80.547 99.036C80.9576 99.2693 81.3496 99.428 81.723 99.512C82.0963 99.596 82.451 99.638 82.787 99.638C83.4496 99.638 83.9443 99.4653 84.271 99.12C84.607 98.784 84.775 98.2893 84.775 97.636V96.124H84.901C84.7703 96.6467 84.4763 97.062 84.019 97.37C83.571 97.678 83.0483 97.832 82.451 97.832C81.835 97.832 81.2983 97.692 80.841 97.412C80.3836 97.1227 80.029 96.726 79.777 96.222C79.525 95.7087 79.399 95.116 79.399 94.444C79.399 93.9307 79.469 93.4687 79.609 93.058C79.7583 92.638 79.9636 92.2833 80.225 91.994C80.4956 91.6953 80.8176 91.4667 81.191 91.308C81.5643 91.14 81.9843 91.056 82.451 91.056C83.0576 91.056 83.585 91.21 84.033 91.518C84.481 91.826 84.7703 92.2413 84.901 92.764L84.747 92.96V91.728C84.747 91.5133 84.803 91.3547 84.915 91.252C85.027 91.14 85.1856 91.084 85.391 91.084C85.587 91.084 85.741 91.14 85.853 91.252C85.965 91.3547 86.021 91.5133 86.021 91.728V97.468C86.021 98.5227 85.7503 99.316 85.209 99.848C84.677 100.38 83.8976 100.646 82.871 100.646ZM82.731 96.824C83.151 96.824 83.5103 96.7307 83.809 96.544C84.117 96.348 84.3503 96.0727 84.509 95.718C84.677 95.354 84.761 94.9293 84.761 94.444C84.761 93.7067 84.579 93.128 84.215 92.708C83.851 92.2787 83.3563 92.064 82.731 92.064C82.311 92.064 81.947 92.162 81.639 92.358C81.3403 92.5447 81.107 92.8153 80.939 93.17C80.771 93.5247 80.687 93.9493 80.687 94.444C80.687 95.172 80.869 95.7507 81.233 96.18C81.6063 96.6093 82.1056 96.824 82.731 96.824ZM91.3528 98.126C90.6155 98.126 89.9808 97.986 89.4488 97.706C88.9261 97.4167 88.5201 97.0107 88.2308 96.488C87.9415 95.956 87.7968 95.3307 87.7968 94.612C87.7968 93.9027 87.9368 93.282 88.2168 92.75C88.5061 92.218 88.8981 91.8027 89.3928 91.504C89.8968 91.2053 90.4708 91.056 91.1148 91.056C91.5721 91.056 91.9828 91.1353 92.3468 91.294C92.7201 91.4433 93.0375 91.6627 93.2988 91.952C93.5601 92.2413 93.7561 92.596 93.8868 93.016C94.0268 93.4267 94.0968 93.8933 94.0968 94.416C94.0968 94.5653 94.0501 94.682 93.9568 94.766C93.8728 94.8407 93.7468 94.878 93.5788 94.878H88.7908V94.066H93.2568L93.0188 94.262C93.0188 93.7767 92.9441 93.366 92.7948 93.03C92.6548 92.6847 92.4448 92.4233 92.1648 92.246C91.8941 92.0687 91.5535 91.98 91.1428 91.98C90.6948 91.98 90.3121 92.0873 89.9948 92.302C89.6775 92.5073 89.4348 92.8013 89.2668 93.184C89.0988 93.5573 89.0148 93.9913 89.0148 94.486V94.57C89.0148 95.41 89.2155 96.0447 89.6168 96.474C90.0181 96.9033 90.5968 97.118 91.3528 97.118C91.6515 97.118 91.9548 97.0807 92.2628 97.006C92.5801 96.9313 92.8835 96.796 93.1728 96.6C93.3128 96.516 93.4388 96.4787 93.5508 96.488C93.6721 96.488 93.7701 96.5253 93.8448 96.6C93.9195 96.6653 93.9661 96.7493 93.9848 96.852C94.0035 96.9453 93.9895 97.048 93.9428 97.16C93.8961 97.272 93.8075 97.37 93.6768 97.454C93.3688 97.6687 93.0001 97.8367 92.5708 97.958C92.1508 98.07 91.7448 98.126 91.3528 98.126Z" fill="white"/>
<path d="M73.1875 25.375H38.8125C37.9496 25.375 37.25 26.0746 37.25 26.9375V55.0625C37.25 55.9254 37.9496 56.625 38.8125 56.625H73.1875C74.0504 56.625 74.75 55.9254 74.75 55.0625V26.9375C74.75 26.0746 74.0504 25.375 73.1875 25.375Z" stroke="#B1B1B1" stroke-width="2" stroke-linecap="round" stroke-linejoin="round"/>
<path d="M37.25 48.8137L47.0826 38.9811C47.2277 38.836 47.4 38.7209 47.5895 38.6424C47.7791 38.5639 47.9823 38.5234 48.1875 38.5234C48.3927 38.5234 48.5958 38.5639 48.7854 38.6424C48.975 38.7209 49.1472 38.836 49.2923 38.9811L58.0201 47.7089C58.1652 47.854 58.3375 47.9691 58.527 48.0476C58.7166 48.1261 58.9198 48.1665 59.125 48.1665C59.3302 48.1665 59.5333 48.1261 59.7229 48.0476C59.9125 47.9691 60.0847 47.854 60.2298 47.7089L64.2701 43.6686C64.4152 43.5235 64.5875 43.4084 64.777 43.3299C64.9666 43.2514 65.1698 43.2109 65.375 43.2109C65.5802 43.2109 65.7833 43.2514 65.9729 43.3299C66.1625 43.4084 66.3347 43.5235 66.4798 43.6686L74.75 51.9387" stroke="#B1B1B1" stroke-width="2" stroke-linecap="round" stroke-linejoin="round"/>
<path d="M61.4688 37.875C62.7632 37.875 63.8125 36.8257 63.8125 35.5312C63.8125 34.2368 62.7632 33.1875 61.4688 33.1875C60.1743 33.1875 59.125 34.2368 59.125 35.5312C59.125 36.8257 60.1743 37.875 61.4688 37.875Z" fill="#B1B1B1"/>
</svg>
