<svg width="115" height="109" viewBox="0 0 115 109" fill="none" xmlns="http://www.w3.org/2000/svg">
<rect x="1.32812" y="0.5" width="112.343" height="108" rx="17.5" fill="#151515" stroke="#939393"/>
<path d="M22.1065 96.5846C21.8918 96.5846 21.7238 96.5239 21.6025 96.4026C21.4811 96.2812 21.4205 96.1086 21.4205 95.8846V87.3166C21.4205 87.0926 21.4811 86.9199 21.6025 86.7986C21.7238 86.6772 21.8965 86.6166 22.1205 86.6166H27.1465C27.3331 86.6166 27.4731 86.6632 27.5665 86.7566C27.6598 86.8406 27.7065 86.9666 27.7065 87.1346C27.7065 87.3119 27.6598 87.4472 27.5665 87.5406C27.4731 87.6339 27.3331 87.6806 27.1465 87.6806H22.7225V90.9846H26.8665C27.0438 90.9846 27.1791 91.0312 27.2725 91.1246C27.3658 91.2179 27.4125 91.3439 27.4125 91.5026C27.4125 91.6799 27.3658 91.8152 27.2725 91.9086C27.1791 92.0019 27.0438 92.0486 26.8665 92.0486H22.7225V95.8846C22.7225 96.3512 22.5171 96.5846 22.1065 96.5846ZM29.6247 96.5846C29.41 96.5846 29.2467 96.5286 29.1347 96.4166C29.0227 96.3046 28.9667 96.1412 28.9667 95.9266V90.2146C28.9667 89.9999 29.0227 89.8412 29.1347 89.7386C29.2467 89.6266 29.4007 89.5706 29.5967 89.5706C29.7927 89.5706 29.942 89.6266 30.0447 89.7386C30.1567 89.8412 30.2127 89.9999 30.2127 90.2146V91.2926H30.0727C30.222 90.7326 30.502 90.3079 30.9127 90.0186C31.3234 89.7292 31.8414 89.5659 32.4667 89.5286C32.616 89.5192 32.7374 89.5566 32.8307 89.6406C32.924 89.7152 32.9754 89.8459 32.9847 90.0326C32.994 90.2099 32.952 90.3546 32.8587 90.4666C32.7654 90.5692 32.6207 90.6299 32.4247 90.6486L32.1727 90.6626C31.5567 90.7279 31.0807 90.9286 30.7447 91.2646C30.418 91.6006 30.2547 92.0626 30.2547 92.6506V95.9266C30.2547 96.1412 30.1987 96.3046 30.0867 96.4166C29.984 96.5286 29.83 96.5846 29.6247 96.5846ZM37.0223 96.6126C36.3503 96.6126 35.7669 96.4679 35.2723 96.1786C34.7776 95.8892 34.3949 95.4786 34.1243 94.9466C33.8536 94.4146 33.7183 93.7892 33.7183 93.0706C33.7183 92.5292 33.7929 92.0439 33.9423 91.6146C34.1009 91.1759 34.3249 90.8026 34.6143 90.4946C34.9036 90.1866 35.2489 89.9532 35.6503 89.7946C36.0609 89.6266 36.5183 89.5426 37.0223 89.5426C37.6943 89.5426 38.2776 89.6872 38.7723 89.9766C39.2669 90.2659 39.6496 90.6766 39.9203 91.2086C40.1909 91.7312 40.3263 92.3519 40.3263 93.0706C40.3263 93.6119 40.2469 94.1019 40.0883 94.5406C39.9389 94.9792 39.7196 95.3526 39.4303 95.6606C39.1409 95.9686 38.7909 96.2066 38.3803 96.3746C37.9789 96.5332 37.5263 96.6126 37.0223 96.6126ZM37.0223 95.6046C37.4329 95.6046 37.7876 95.5066 38.0863 95.3106C38.3943 95.1146 38.6276 94.8299 38.7863 94.4566C38.9543 94.0832 39.0383 93.6212 39.0383 93.0706C39.0383 92.2492 38.8563 91.6239 38.4923 91.1946C38.1283 90.7652 37.6383 90.5506 37.0223 90.5506C36.6209 90.5506 36.2663 90.6486 35.9583 90.8446C35.6596 91.0312 35.4263 91.3112 35.2583 91.6846C35.0903 92.0579 35.0063 92.5199 35.0063 93.0706C35.0063 93.8919 35.1883 94.5219 35.5523 94.9606C35.9256 95.3899 36.4156 95.6046 37.0223 95.6046ZM42.7563 96.5846C42.5603 96.5846 42.4063 96.5286 42.2943 96.4166C42.1823 96.3046 42.1263 96.1412 42.1263 95.9266V90.2146C42.1263 89.9999 42.1823 89.8412 42.2943 89.7386C42.4063 89.6266 42.5603 89.5706 42.7563 89.5706C42.9523 89.5706 43.1016 89.6266 43.2043 89.7386C43.3163 89.8412 43.3723 89.9999 43.3723 90.2146V91.4046L43.2183 91.1526C43.3956 90.6392 43.6803 90.2426 44.0723 89.9626C44.4736 89.6826 44.9496 89.5426 45.5003 89.5426C46.0789 89.5426 46.5456 89.6826 46.9003 89.9626C47.2549 90.2332 47.4929 90.6486 47.6143 91.2086H47.4183C47.5863 90.6952 47.8849 90.2892 48.3143 89.9906C48.7529 89.6919 49.2616 89.5426 49.8403 89.5426C50.3536 89.5426 50.7736 89.6452 51.1003 89.8506C51.4363 90.0466 51.6883 90.3452 51.8563 90.7466C52.0243 91.1386 52.1083 91.6426 52.1083 92.2586V95.9266C52.1083 96.1412 52.0523 96.3046 51.9403 96.4166C51.8283 96.5286 51.6743 96.5846 51.4783 96.5846C51.2729 96.5846 51.1143 96.5286 51.0023 96.4166C50.8903 96.3046 50.8343 96.1412 50.8343 95.9266V92.3146C50.8343 91.7172 50.7316 91.2786 50.5263 90.9986C50.3209 90.7186 49.9756 90.5786 49.4903 90.5786C48.9583 90.5786 48.5336 90.7652 48.2163 91.1386C47.9083 91.5026 47.7543 92.0066 47.7543 92.6506V95.9266C47.7543 96.1412 47.6983 96.3046 47.5863 96.4166C47.4836 96.5286 47.3296 96.5846 47.1243 96.5846C46.9189 96.5846 46.7603 96.5286 46.6483 96.4166C46.5363 96.3046 46.4803 96.1412 46.4803 95.9266V92.3146C46.4803 91.7172 46.3776 91.2786 46.1723 90.9986C45.9669 90.7186 45.6216 90.5786 45.1363 90.5786C44.6043 90.5786 44.1796 90.7652 43.8623 91.1386C43.5543 91.5026 43.4003 92.0066 43.4003 92.6506V95.9266C43.4003 96.3652 43.1856 96.5846 42.7563 96.5846ZM58.8992 96.5846C58.6939 96.5846 58.5352 96.5286 58.4232 96.4166C58.3112 96.2952 58.2552 96.1272 58.2552 95.9126V87.2746C58.2552 87.0599 58.3112 86.8966 58.4232 86.7846C58.5446 86.6726 58.7079 86.6166 58.9132 86.6166H62.2452C63.3092 86.6166 64.1259 86.8779 64.6952 87.4006C65.2739 87.9232 65.5632 88.6559 65.5632 89.5986C65.5632 90.5506 65.2739 91.2879 64.6952 91.8106C64.1259 92.3332 63.3092 92.5946 62.2452 92.5946H59.5572V95.9126C59.5572 96.1272 59.5012 96.2952 59.3892 96.4166C59.2866 96.5286 59.1232 96.5846 58.8992 96.5846ZM59.5572 91.5446H62.0772C62.8052 91.5446 63.3512 91.3812 63.7152 91.0546C64.0886 90.7186 64.2752 90.2332 64.2752 89.5986C64.2752 88.9639 64.0886 88.4879 63.7152 88.1706C63.3512 87.8439 62.8052 87.6806 62.0772 87.6806H59.5572V91.5446ZM67.7713 96.5846C67.5753 96.5846 67.4213 96.5286 67.3093 96.4166C67.1973 96.3046 67.1413 96.1412 67.1413 95.9266V87.1626C67.1413 86.9479 67.1973 86.7892 67.3093 86.6866C67.4213 86.5746 67.5753 86.5186 67.7713 86.5186C67.9766 86.5186 68.1353 86.5746 68.2473 86.6866C68.3593 86.7892 68.4153 86.9479 68.4153 87.1626V91.1526H68.2333C68.4293 90.6206 68.7466 90.2192 69.1853 89.9486C69.6333 89.6779 70.142 89.5426 70.7113 89.5426C71.262 89.5426 71.7146 89.6452 72.0693 89.8506C72.424 90.0466 72.69 90.3452 72.8673 90.7466C73.0446 91.1479 73.1333 91.6519 73.1333 92.2586V95.9266C73.1333 96.1412 73.0773 96.3046 72.9653 96.4166C72.8626 96.5286 72.7086 96.5846 72.5033 96.5846C72.298 96.5846 72.1393 96.5286 72.0273 96.4166C71.9153 96.3046 71.8593 96.1412 71.8593 95.9266V92.3286C71.8593 91.7219 71.7426 91.2786 71.5093 90.9986C71.276 90.7186 70.9026 90.5786 70.3893 90.5786C69.792 90.5786 69.3113 90.7652 68.9473 91.1386C68.5926 91.5026 68.4153 91.9972 68.4153 92.6226V95.9266C68.4153 96.3652 68.2006 96.5846 67.7713 96.5846ZM78.191 96.6126C77.519 96.6126 76.9357 96.4679 76.441 96.1786C75.9463 95.8892 75.5637 95.4786 75.293 94.9466C75.0223 94.4146 74.887 93.7892 74.887 93.0706C74.887 92.5292 74.9617 92.0439 75.111 91.6146C75.2697 91.1759 75.4937 90.8026 75.783 90.4946C76.0723 90.1866 76.4177 89.9532 76.819 89.7946C77.2297 89.6266 77.687 89.5426 78.191 89.5426C78.863 89.5426 79.4463 89.6872 79.941 89.9766C80.4357 90.2659 80.8183 90.6766 81.089 91.2086C81.3597 91.7312 81.495 92.3519 81.495 93.0706C81.495 93.6119 81.4157 94.1019 81.257 94.5406C81.1077 94.9792 80.8883 95.3526 80.599 95.6606C80.3097 95.9686 79.9597 96.2066 79.549 96.3746C79.1477 96.5332 78.695 96.6126 78.191 96.6126ZM78.191 95.6046C78.6017 95.6046 78.9563 95.5066 79.255 95.3106C79.563 95.1146 79.7963 94.8299 79.955 94.4566C80.123 94.0832 80.207 93.6212 80.207 93.0706C80.207 92.2492 80.025 91.6239 79.661 91.1946C79.297 90.7652 78.807 90.5506 78.191 90.5506C77.7897 90.5506 77.435 90.6486 77.127 90.8446C76.8283 91.0312 76.595 91.3112 76.427 91.6846C76.259 92.0579 76.175 92.5199 76.175 93.0706C76.175 93.8919 76.357 94.5219 76.721 94.9606C77.0943 95.3899 77.5843 95.6046 78.191 95.6046ZM86.0266 96.6126C85.476 96.6126 85.014 96.5146 84.6406 96.3186C84.2766 96.1226 84.0013 95.8379 83.8146 95.4646C83.6373 95.0912 83.5486 94.6339 83.5486 94.0926V90.6486H82.6526C82.4846 90.6486 82.354 90.6066 82.2606 90.5226C82.1673 90.4292 82.1206 90.3079 82.1206 90.1586C82.1206 89.9999 82.1673 89.8786 82.2606 89.7946C82.354 89.7106 82.4846 89.6686 82.6526 89.6686H83.5486V88.1426C83.5486 87.9279 83.6046 87.7692 83.7166 87.6666C83.8286 87.5546 83.9873 87.4986 84.1926 87.4986C84.398 87.4986 84.552 87.5546 84.6546 87.6666C84.7666 87.7692 84.8226 87.9279 84.8226 88.1426V89.6686H86.5166C86.694 89.6686 86.8293 89.7106 86.9226 89.7946C87.016 89.8786 87.0626 89.9999 87.0626 90.1586C87.0626 90.3079 87.016 90.4292 86.9226 90.5226C86.8293 90.6066 86.694 90.6486 86.5166 90.6486H84.8226V93.9806C84.8226 94.4939 84.93 94.8812 85.1446 95.1426C85.3593 95.4039 85.714 95.5346 86.2086 95.5346C86.386 95.5346 86.5353 95.5206 86.6566 95.4926C86.778 95.4552 86.8853 95.4366 86.9786 95.4366C87.0626 95.4272 87.1326 95.4552 87.1886 95.5206C87.254 95.5859 87.2866 95.7072 87.2866 95.8846C87.2866 96.0152 87.2633 96.1366 87.2166 96.2486C87.1793 96.3512 87.1 96.4212 86.9786 96.4586C86.8666 96.4959 86.7173 96.5286 86.5306 96.5566C86.344 96.5939 86.176 96.6126 86.0266 96.6126ZM91.1859 96.6126C90.5139 96.6126 89.9305 96.4679 89.4359 96.1786C88.9412 95.8892 88.5585 95.4786 88.2879 94.9466C88.0172 94.4146 87.8819 93.7892 87.8819 93.0706C87.8819 92.5292 87.9565 92.0439 88.1059 91.6146C88.2645 91.1759 88.4885 90.8026 88.7779 90.4946C89.0672 90.1866 89.4125 89.9532 89.8139 89.7946C90.2245 89.6266 90.6819 89.5426 91.1859 89.5426C91.8579 89.5426 92.4412 89.6872 92.9359 89.9766C93.4305 90.2659 93.8132 90.6766 94.0839 91.2086C94.3545 91.7312 94.4899 92.3519 94.4899 93.0706C94.4899 93.6119 94.4105 94.1019 94.2519 94.5406C94.1025 94.9792 93.8832 95.3526 93.5939 95.6606C93.3045 95.9686 92.9545 96.2066 92.5439 96.3746C92.1425 96.5332 91.6899 96.6126 91.1859 96.6126ZM91.1859 95.6046C91.5965 95.6046 91.9512 95.5066 92.2499 95.3106C92.5579 95.1146 92.7912 94.8299 92.9499 94.4566C93.1179 94.0832 93.2019 93.6212 93.2019 93.0706C93.2019 92.2492 93.0199 91.6239 92.6559 91.1946C92.2919 90.7652 91.8019 90.5506 91.1859 90.5506C90.7845 90.5506 90.4299 90.6486 90.1219 90.8446C89.8232 91.0312 89.5899 91.3112 89.4219 91.6846C89.2539 92.0579 89.1699 92.5199 89.1699 93.0706C89.1699 93.8919 89.3519 94.5219 89.7159 94.9606C90.0892 95.3899 90.5792 95.6046 91.1859 95.6046Z" fill="white"/>
<path d="M73.9678 55.6046H42.0582C41.2119 55.6046 40.4002 55.2813 39.8018 54.7058C39.2034 54.1303 38.8672 53.3498 38.8672 52.5359V31.055C38.8672 30.2412 39.2034 29.4606 39.8018 28.8851C40.4002 28.3096 41.2119 27.9863 42.0582 27.9863H48.4389L51.6299 23.3833H64.3937L67.5847 27.9863H73.9678C74.8141 27.9863 75.6257 28.3096 76.2241 28.8851C76.8226 29.4606 77.1587 30.2412 77.1587 31.055V52.5359C77.1587 53.3498 76.8226 54.1303 76.2241 54.7058C75.6257 55.2813 74.8141 55.6046 73.9678 55.6046Z" stroke="#B1B1B1" stroke-width="2" stroke-linecap="round" stroke-linejoin="round"/>
<path d="M58.0117 47.9329C61.9769 47.9329 65.1914 44.8416 65.1914 41.0283C65.1914 37.2151 61.9769 34.1238 58.0117 34.1238C54.0465 34.1238 50.832 37.2151 50.832 41.0283C50.832 44.8416 54.0465 47.9329 58.0117 47.9329Z" stroke="#B1B1B1" stroke-width="2" stroke-linecap="round" stroke-linejoin="round"/>
</svg>
