<svg width="114" height="109" viewBox="0 0 114 109" fill="none" xmlns="http://www.w3.org/2000/svg">
<rect x="1.15625" y="0.5" width="112.343" height="108" rx="17.5" fill="#151515" stroke="#939393"/>
<path d="M14.8002 96.4866C14.5762 96.4866 14.4035 96.4259 14.2822 96.3046C14.1608 96.1832 14.1002 96.0106 14.1002 95.7866V87.3166C14.1002 87.0926 14.1608 86.9199 14.2822 86.7986C14.4035 86.6772 14.5762 86.6166 14.8002 86.6166H18.1182C18.7995 86.6166 19.3782 86.7192 19.8542 86.9246C20.3395 87.1299 20.7082 87.4239 20.9602 87.8066C21.2122 88.1892 21.3382 88.6512 21.3382 89.1926C21.3382 89.7992 21.1608 90.3079 20.8062 90.7186C20.4515 91.1292 19.9662 91.4046 19.3502 91.5446V91.3346C20.0408 91.4186 20.5822 91.6752 20.9742 92.1046C21.3755 92.5246 21.5762 93.0752 21.5762 93.7566C21.5762 94.6339 21.2868 95.3106 20.7082 95.7866C20.1388 96.2532 19.3315 96.4866 18.2862 96.4866H14.8002ZM15.3602 95.4646H18.1462C18.8742 95.4646 19.4155 95.3246 19.7702 95.0446C20.1248 94.7552 20.3022 94.3166 20.3022 93.7286C20.3022 93.1406 20.1248 92.7066 19.7702 92.4266C19.4155 92.1466 18.8742 92.0066 18.1462 92.0066H15.3602V95.4646ZM15.3602 90.9706H17.9222C18.6315 90.9706 19.1635 90.8306 19.5182 90.5506C19.8822 90.2612 20.0642 89.8459 20.0642 89.3046C20.0642 88.7632 19.8822 88.3526 19.5182 88.0726C19.1635 87.7832 18.6315 87.6386 17.9222 87.6386H15.3602V90.9706ZM25.7161 96.6126C25.0161 96.6126 24.4841 96.4072 24.1201 95.9966C23.7561 95.5766 23.5741 94.9746 23.5741 94.1906V87.1626C23.5741 86.9479 23.6301 86.7892 23.7421 86.6866C23.8541 86.5746 24.0081 86.5186 24.2041 86.5186C24.4094 86.5186 24.5681 86.5746 24.6801 86.6866C24.7921 86.7892 24.8481 86.9479 24.8481 87.1626V94.0926C24.8481 94.5779 24.9461 94.9419 25.1421 95.1846C25.3474 95.4179 25.6368 95.5346 26.0101 95.5346C26.0941 95.5346 26.1688 95.5346 26.2341 95.5346C26.2994 95.5252 26.3648 95.5159 26.4301 95.5066C26.5328 95.4972 26.6074 95.5252 26.6541 95.5906C26.7008 95.6559 26.7241 95.7866 26.7241 95.9826C26.7241 96.1599 26.6821 96.2999 26.5981 96.4026C26.5234 96.4959 26.3974 96.5566 26.2201 96.5846C26.1361 96.5939 26.0521 96.5986 25.9681 96.5986C25.8841 96.6079 25.8001 96.6126 25.7161 96.6126ZM30.095 96.6126C29.6284 96.6126 29.2037 96.5192 28.821 96.3326C28.4477 96.1459 28.1537 95.8939 27.939 95.5766C27.7337 95.2592 27.631 94.9046 27.631 94.5126C27.631 94.0086 27.757 93.6119 28.009 93.3226C28.261 93.0332 28.6857 92.8279 29.283 92.7066C29.8804 92.5759 30.683 92.5106 31.691 92.5106H32.349V93.3226H31.719C31.0004 93.3226 30.431 93.3552 30.011 93.4206C29.6004 93.4859 29.311 93.6026 29.143 93.7706C28.975 93.9292 28.891 94.1532 28.891 94.4426C28.891 94.8066 29.017 95.1052 29.269 95.3386C29.5304 95.5719 29.885 95.6886 30.333 95.6886C30.6877 95.6886 31.0004 95.6046 31.271 95.4366C31.5417 95.2592 31.7564 95.0259 31.915 94.7366C32.0737 94.4379 32.153 94.0972 32.153 93.7146V92.1046C32.153 91.5539 32.041 91.1572 31.817 90.9146C31.593 90.6626 31.215 90.5366 30.683 90.5366C30.375 90.5366 30.0577 90.5786 29.731 90.6626C29.4044 90.7466 29.0637 90.8772 28.709 91.0546C28.569 91.1199 28.4477 91.1432 28.345 91.1246C28.2424 91.0966 28.1584 91.0406 28.093 90.9566C28.037 90.8632 28.0044 90.7652 27.995 90.6626C27.995 90.5506 28.0184 90.4432 28.065 90.3406C28.121 90.2379 28.2144 90.1632 28.345 90.1166C28.7557 89.9112 29.1617 89.7666 29.563 89.6826C29.9737 89.5892 30.3564 89.5426 30.711 89.5426C31.3177 89.5426 31.817 89.6406 32.209 89.8366C32.601 90.0232 32.895 90.3172 33.091 90.7186C33.287 91.1106 33.385 91.6146 33.385 92.2306V95.9266C33.385 96.1412 33.3337 96.3046 33.231 96.4166C33.1284 96.5286 32.979 96.5846 32.783 96.5846C32.5964 96.5846 32.447 96.5286 32.335 96.4166C32.2324 96.3046 32.181 96.1412 32.181 95.9266V94.9326H32.307C32.2324 95.2779 32.0924 95.5766 31.887 95.8286C31.6817 96.0806 31.425 96.2766 31.117 96.4166C30.8184 96.5472 30.4777 96.6126 30.095 96.6126ZM36.1599 96.5846C35.9639 96.5846 35.8099 96.5286 35.6979 96.4166C35.5859 96.3046 35.5299 96.1412 35.5299 95.9266V90.2146C35.5299 89.9999 35.5859 89.8412 35.6979 89.7386C35.8099 89.6266 35.9639 89.5706 36.1599 89.5706C36.3559 89.5706 36.5052 89.6266 36.6079 89.7386C36.7199 89.8412 36.7759 89.9999 36.7759 90.2146V91.3626L36.6219 91.1526C36.8179 90.6206 37.1352 90.2192 37.5739 89.9486C38.0219 89.6779 38.5306 89.5426 39.0999 89.5426C39.6506 89.5426 40.1032 89.6406 40.4579 89.8366C40.8126 90.0326 41.0786 90.3312 41.2559 90.7326C41.4332 91.1339 41.5219 91.6426 41.5219 92.2586V95.9266C41.5219 96.1412 41.4659 96.3046 41.3539 96.4166C41.2512 96.5286 41.0972 96.5846 40.8919 96.5846C40.6866 96.5846 40.5279 96.5286 40.4159 96.4166C40.3039 96.3046 40.2479 96.1412 40.2479 95.9266V92.3286C40.2479 91.7219 40.1312 91.2786 39.8979 90.9986C39.6646 90.7186 39.2912 90.5786 38.7779 90.5786C38.1806 90.5786 37.6999 90.7652 37.3359 91.1386C36.9812 91.5026 36.8039 91.9972 36.8039 92.6226V95.9266C36.8039 96.3652 36.5892 96.5846 36.1599 96.5846ZM44.3116 96.5846C44.1156 96.5846 43.9616 96.5286 43.8496 96.4166C43.7376 96.3046 43.6816 96.1412 43.6816 95.9266V87.1626C43.6816 86.9479 43.7376 86.7892 43.8496 86.6866C43.9616 86.5746 44.1156 86.5186 44.3116 86.5186C44.5169 86.5186 44.6756 86.5746 44.7876 86.6866C44.8996 86.7892 44.9556 86.9479 44.9556 87.1626V92.6786H44.9836L47.7276 90.0046C47.8676 89.8646 47.9936 89.7572 48.1056 89.6826C48.2176 89.6079 48.3623 89.5706 48.5396 89.5706C48.7169 89.5706 48.8523 89.6172 48.9456 89.7106C49.0389 89.7946 49.0856 89.9066 49.0856 90.0466C49.0856 90.1772 49.0203 90.3079 48.8896 90.4386L45.9776 93.2666V92.6366L49.1556 95.7026C49.2863 95.8332 49.3469 95.9686 49.3376 96.1086C49.3376 96.2486 49.2863 96.3652 49.1836 96.4586C49.0903 96.5426 48.9643 96.5846 48.8056 96.5846C48.6189 96.5846 48.4649 96.5472 48.3436 96.4726C48.2316 96.3979 48.1009 96.2812 47.9516 96.1226L44.9836 93.3226H44.9556V95.9266C44.9556 96.3652 44.7409 96.5846 44.3116 96.5846ZM59.2294 96.6126C58.2494 96.6126 57.4094 96.4072 56.7094 95.9966C56.0094 95.5859 55.468 95.0026 55.0854 94.2466C54.712 93.4812 54.5254 92.5806 54.5254 91.5446C54.5254 90.7699 54.6327 90.0746 54.8474 89.4586C55.062 88.8332 55.37 88.3012 55.7714 87.8626C56.1727 87.4146 56.6627 87.0739 57.2414 86.8406C57.8294 86.6072 58.492 86.4906 59.2294 86.4906C59.7894 86.4906 60.326 86.5699 60.8394 86.7286C61.362 86.8872 61.81 87.1112 62.1834 87.4006C62.3327 87.5032 62.4307 87.6199 62.4774 87.7506C62.524 87.8812 62.5287 88.0072 62.4914 88.1286C62.4634 88.2406 62.4027 88.3386 62.3094 88.4226C62.2254 88.4972 62.118 88.5392 61.9874 88.5486C61.8567 88.5486 61.7167 88.4972 61.5674 88.3946C61.2407 88.1426 60.8814 87.9606 60.4894 87.8486C60.1067 87.7272 59.696 87.6666 59.2574 87.6666C58.5387 87.6666 57.9274 87.8206 57.4234 88.1286C56.9287 88.4272 56.5507 88.8659 56.2894 89.4446C56.0374 90.0139 55.9114 90.7139 55.9114 91.5446C55.9114 92.3659 56.0374 93.0706 56.2894 93.6586C56.5507 94.2372 56.9287 94.6806 57.4234 94.9886C57.9274 95.2872 58.5387 95.4366 59.2574 95.4366C59.696 95.4366 60.1114 95.3759 60.5034 95.2546C60.9047 95.1332 61.2734 94.9466 61.6094 94.6946C61.7587 94.5919 61.894 94.5452 62.0154 94.5546C62.146 94.5639 62.2534 94.6059 62.3374 94.6806C62.4214 94.7459 62.4774 94.8392 62.5054 94.9606C62.5427 95.0726 62.5427 95.1892 62.5054 95.3106C62.468 95.4319 62.384 95.5392 62.2534 95.6326C61.8707 95.9592 61.4134 96.2066 60.8814 96.3746C60.3587 96.5332 59.808 96.6126 59.2294 96.6126ZM66.2462 96.6126C65.7796 96.6126 65.3549 96.5192 64.9722 96.3326C64.5989 96.1459 64.3049 95.8939 64.0902 95.5766C63.8849 95.2592 63.7822 94.9046 63.7822 94.5126C63.7822 94.0086 63.9082 93.6119 64.1602 93.3226C64.4122 93.0332 64.8369 92.8279 65.4342 92.7066C66.0316 92.5759 66.8342 92.5106 67.8422 92.5106H68.5002V93.3226H67.8702C67.1516 93.3226 66.5822 93.3552 66.1622 93.4206C65.7516 93.4859 65.4622 93.6026 65.2942 93.7706C65.1262 93.9292 65.0422 94.1532 65.0422 94.4426C65.0422 94.8066 65.1682 95.1052 65.4202 95.3386C65.6816 95.5719 66.0362 95.6886 66.4842 95.6886C66.8389 95.6886 67.1516 95.6046 67.4222 95.4366C67.6929 95.2592 67.9076 95.0259 68.0662 94.7366C68.2249 94.4379 68.3042 94.0972 68.3042 93.7146V92.1046C68.3042 91.5539 68.1922 91.1572 67.9682 90.9146C67.7442 90.6626 67.3662 90.5366 66.8342 90.5366C66.5262 90.5366 66.2089 90.5786 65.8822 90.6626C65.5556 90.7466 65.2149 90.8772 64.8602 91.0546C64.7202 91.1199 64.5989 91.1432 64.4962 91.1246C64.3936 91.0966 64.3096 91.0406 64.2442 90.9566C64.1882 90.8632 64.1556 90.7652 64.1462 90.6626C64.1462 90.5506 64.1696 90.4432 64.2162 90.3406C64.2722 90.2379 64.3656 90.1632 64.4962 90.1166C64.9069 89.9112 65.3129 89.7666 65.7142 89.6826C66.1249 89.5892 66.5076 89.5426 66.8622 89.5426C67.4689 89.5426 67.9682 89.6406 68.3602 89.8366C68.7522 90.0232 69.0462 90.3172 69.2422 90.7186C69.4382 91.1106 69.5362 91.6146 69.5362 92.2306V95.9266C69.5362 96.1412 69.4849 96.3046 69.3822 96.4166C69.2796 96.5286 69.1302 96.5846 68.9342 96.5846C68.7476 96.5846 68.5982 96.5286 68.4862 96.4166C68.3836 96.3046 68.3322 96.1412 68.3322 95.9266V94.9326H68.4582C68.3836 95.2779 68.2436 95.5766 68.0382 95.8286C67.8329 96.0806 67.5762 96.2766 67.2682 96.4166C66.9696 96.5472 66.6289 96.6126 66.2462 96.6126ZM72.3111 96.5846C72.1151 96.5846 71.9611 96.5286 71.8491 96.4166C71.7371 96.3046 71.6811 96.1412 71.6811 95.9266V90.2146C71.6811 89.9999 71.7371 89.8412 71.8491 89.7386C71.9611 89.6266 72.1151 89.5706 72.3111 89.5706C72.5071 89.5706 72.6564 89.6266 72.7591 89.7386C72.8711 89.8412 72.9271 89.9999 72.9271 90.2146V91.3626L72.7731 91.1526C72.9691 90.6206 73.2864 90.2192 73.7251 89.9486C74.1731 89.6779 74.6817 89.5426 75.2511 89.5426C75.8017 89.5426 76.2544 89.6406 76.6091 89.8366C76.9637 90.0326 77.2297 90.3312 77.4071 90.7326C77.5844 91.1339 77.6731 91.6426 77.6731 92.2586V95.9266C77.6731 96.1412 77.6171 96.3046 77.5051 96.4166C77.4024 96.5286 77.2484 96.5846 77.0431 96.5846C76.8377 96.5846 76.6791 96.5286 76.5671 96.4166C76.4551 96.3046 76.3991 96.1412 76.3991 95.9266V92.3286C76.3991 91.7219 76.2824 91.2786 76.0491 90.9986C75.8157 90.7186 75.4424 90.5786 74.9291 90.5786C74.3317 90.5786 73.8511 90.7652 73.4871 91.1386C73.1324 91.5026 72.9551 91.9972 72.9551 92.6226V95.9266C72.9551 96.3652 72.7404 96.5846 72.3111 96.5846ZM82.3544 96.5846C82.1771 96.5846 82.0231 96.5379 81.8924 96.4446C81.7618 96.3512 81.6498 96.2019 81.5564 95.9966L79.1764 90.4526C79.1111 90.2939 79.0878 90.1492 79.1064 90.0186C79.1251 89.8879 79.1858 89.7806 79.2884 89.6966C79.4004 89.6126 79.5498 89.5706 79.7364 89.5706C79.8951 89.5706 80.0211 89.6079 80.1144 89.6826C80.2078 89.7572 80.2964 89.8879 80.3804 90.0746L82.5784 95.4926H82.1864L84.4404 90.0746C84.5151 89.8879 84.5991 89.7572 84.6924 89.6826C84.7951 89.6079 84.9351 89.5706 85.1124 89.5706C85.2711 89.5706 85.3924 89.6126 85.4764 89.6966C85.5698 89.7806 85.6258 89.8879 85.6444 90.0186C85.6631 90.1492 85.6351 90.2892 85.5604 90.4386L83.1664 95.9966C83.0824 96.2019 82.9704 96.3512 82.8304 96.4446C82.6998 96.5379 82.5411 96.5846 82.3544 96.5846ZM89.1838 96.6126C88.7171 96.6126 88.2925 96.5192 87.9098 96.3326C87.5365 96.1459 87.2425 95.8939 87.0278 95.5766C86.8225 95.2592 86.7198 94.9046 86.7198 94.5126C86.7198 94.0086 86.8458 93.6119 87.0978 93.3226C87.3498 93.0332 87.7745 92.8279 88.3718 92.7066C88.9691 92.5759 89.7718 92.5106 90.7798 92.5106H91.4378V93.3226H90.8078C90.0891 93.3226 89.5198 93.3552 89.0998 93.4206C88.6891 93.4859 88.3998 93.6026 88.2318 93.7706C88.0638 93.9292 87.9798 94.1532 87.9798 94.4426C87.9798 94.8066 88.1058 95.1052 88.3578 95.3386C88.6191 95.5719 88.9738 95.6886 89.4218 95.6886C89.7765 95.6886 90.0891 95.6046 90.3598 95.4366C90.6305 95.2592 90.8451 95.0259 91.0038 94.7366C91.1625 94.4379 91.2418 94.0972 91.2418 93.7146V92.1046C91.2418 91.5539 91.1298 91.1572 90.9058 90.9146C90.6818 90.6626 90.3038 90.5366 89.7718 90.5366C89.4638 90.5366 89.1465 90.5786 88.8198 90.6626C88.4931 90.7466 88.1525 90.8772 87.7978 91.0546C87.6578 91.1199 87.5365 91.1432 87.4338 91.1246C87.3311 91.0966 87.2471 91.0406 87.1818 90.9566C87.1258 90.8632 87.0931 90.7652 87.0838 90.6626C87.0838 90.5506 87.1071 90.4432 87.1538 90.3406C87.2098 90.2379 87.3031 90.1632 87.4338 90.1166C87.8445 89.9112 88.2505 89.7666 88.6518 89.6826C89.0625 89.5892 89.4451 89.5426 89.7998 89.5426C90.4065 89.5426 90.9058 89.6406 91.2978 89.8366C91.6898 90.0232 91.9838 90.3172 92.1798 90.7186C92.3758 91.1106 92.4738 91.6146 92.4738 92.2306V95.9266C92.4738 96.1412 92.4225 96.3046 92.3198 96.4166C92.2171 96.5286 92.0678 96.5846 91.8718 96.5846C91.6851 96.5846 91.5358 96.5286 91.4238 96.4166C91.3211 96.3046 91.2698 96.1412 91.2698 95.9266V94.9326H91.3958C91.3211 95.2779 91.1811 95.5766 90.9758 95.8286C90.7705 96.0806 90.5138 96.2766 90.2058 96.4166C89.9071 96.5472 89.5665 96.6126 89.1838 96.6126ZM96.9706 96.6126C96.5506 96.6126 96.126 96.5659 95.6966 96.4726C95.2766 96.3699 94.88 96.1972 94.5066 95.9546C94.404 95.8892 94.3293 95.8099 94.2826 95.7166C94.2453 95.6139 94.2313 95.5159 94.2406 95.4226C94.2593 95.3199 94.3013 95.2312 94.3666 95.1566C94.432 95.0819 94.5113 95.0399 94.6046 95.0306C94.7073 95.0119 94.8146 95.0352 94.9266 95.1006C95.2906 95.3059 95.6406 95.4506 95.9766 95.5346C96.322 95.6186 96.6626 95.6606 96.9986 95.6606C97.512 95.6606 97.8993 95.5672 98.1606 95.3806C98.422 95.1939 98.5526 94.9466 98.5526 94.6386C98.5526 94.3772 98.464 94.1766 98.2866 94.0366C98.1186 93.8872 97.8526 93.7752 97.4886 93.7006L96.1866 93.4346C95.608 93.3039 95.1693 93.0892 94.8706 92.7906C94.5813 92.4826 94.4366 92.0906 94.4366 91.6146C94.4366 91.1946 94.5486 90.8306 94.7726 90.5226C95.006 90.2052 95.328 89.9626 95.7386 89.7946C96.1493 89.6266 96.6206 89.5426 97.1526 89.5426C97.5633 89.5426 97.9506 89.5986 98.3146 89.7106C98.688 89.8132 99.024 89.9719 99.3226 90.1866C99.4346 90.2519 99.5046 90.3359 99.5326 90.4386C99.57 90.5319 99.5746 90.6299 99.5466 90.7326C99.528 90.8259 99.486 90.9052 99.4206 90.9706C99.3553 91.0359 99.2713 91.0779 99.1686 91.0966C99.066 91.1059 98.954 91.0779 98.8326 91.0126C98.562 90.8259 98.282 90.6952 97.9926 90.6206C97.7126 90.5366 97.4326 90.4946 97.1526 90.4946C96.6486 90.4946 96.266 90.5926 96.0046 90.7886C95.7526 90.9846 95.6266 91.2412 95.6266 91.5586C95.6266 91.8012 95.7013 92.0019 95.8506 92.1606C96.0093 92.3192 96.2566 92.4359 96.5926 92.5106L97.8946 92.7766C98.5013 92.9072 98.9586 93.1172 99.2666 93.4066C99.5746 93.6866 99.7286 94.0692 99.7286 94.5546C99.7286 95.1892 99.4766 95.6932 98.9726 96.0666C98.478 96.4306 97.8106 96.6126 96.9706 96.6126Z" fill="white"/>
<rect x="43.5234" y="11.8018" width="27.6121" height="56.9189" rx="3" fill="#151515" stroke="#A2A2A2" stroke-width="2"/>
</svg>
