<svg width="32" height="46" viewBox="0 0 32 46" fill="none" xmlns="http://www.w3.org/2000/svg">
<path d="M3.82178 42.1085C3.45206 42.1085 3.09037 42.0804 2.73673 42.0241C2.38308 41.9679 2.04953 41.8835 1.73608 41.7709C1.42262 41.6504 1.14131 41.5057 0.89215 41.3369C0.771589 41.2485 0.687196 41.148 0.638972 41.0355C0.598785 40.923 0.586729 40.8145 0.602804 40.71C0.626916 40.5975 0.67514 40.501 0.747477 40.4207C0.819813 40.3403 0.908224 40.2921 1.01271 40.276C1.1172 40.2519 1.23374 40.284 1.36234 40.3724C1.72402 40.6055 2.10579 40.7783 2.50766 40.8908C2.90953 40.9953 3.34757 41.0476 3.82178 41.0476C4.50495 41.0476 5.00729 40.927 5.32879 40.6859C5.65832 40.4367 5.82308 40.1152 5.82308 39.7214C5.82308 39.3999 5.70654 39.1467 5.47346 38.9619C5.24037 38.769 4.85056 38.6163 4.30402 38.5037L3.01402 38.2385C2.25047 38.0778 1.67981 37.8125 1.30206 37.4428C0.932337 37.0731 0.747477 36.5748 0.747477 35.9478C0.747477 35.5701 0.823832 35.2245 0.976542 34.911C1.13729 34.5976 1.35832 34.3283 1.63963 34.1033C1.92093 33.8702 2.2585 33.6934 2.65234 33.5728C3.04617 33.4522 3.47617 33.392 3.94234 33.392C4.44065 33.392 4.90682 33.4563 5.34084 33.5849C5.7829 33.7135 6.17673 33.9104 6.52234 34.1756C6.62682 34.2479 6.69514 34.3404 6.72729 34.4529C6.76748 34.5574 6.77551 34.6619 6.7514 34.7664C6.73533 34.8708 6.69112 34.9593 6.61879 35.0316C6.54645 35.1039 6.45402 35.1481 6.3415 35.1642C6.22897 35.1722 6.10439 35.1321 5.96776 35.0436C5.6543 34.8347 5.3328 34.686 5.00327 34.5976C4.68178 34.5011 4.32411 34.4529 3.93028 34.4529C3.53645 34.4529 3.19084 34.5132 2.89346 34.6337C2.60411 34.7543 2.37907 34.9231 2.21832 35.1401C2.06561 35.3571 1.98925 35.6143 1.98925 35.9117C1.98925 36.2493 2.09776 36.5185 2.31477 36.7194C2.53178 36.9204 2.89346 37.0731 3.39981 37.1776L4.67776 37.4428C5.4815 37.6116 6.08028 37.8728 6.47411 38.2264C6.86794 38.5801 7.06486 39.0503 7.06486 39.637C7.06486 40.0148 6.98851 40.3564 6.8358 40.6618C6.68309 40.9592 6.46608 41.2164 6.18477 41.4334C5.90346 41.6504 5.56187 41.8192 5.16 41.9397C4.76617 42.0522 4.32009 42.1085 3.82178 42.1085ZM8.95851 42.0844C8.76561 42.0844 8.61692 42.0321 8.51244 41.9277C8.40795 41.8151 8.35571 41.6624 8.35571 41.4695V34.0309C8.35571 33.83 8.40795 33.6773 8.51244 33.5728C8.61692 33.4683 8.76561 33.4161 8.95851 33.4161C9.15141 33.4161 9.3001 33.4683 9.40459 33.5728C9.51711 33.6773 9.57337 33.83 9.57337 34.0309V37.3705H9.40459C9.58141 36.9204 9.8587 36.5828 10.2365 36.3578C10.6142 36.1247 11.0482 36.0081 11.5385 36.0081C12.0047 36.0081 12.3905 36.0965 12.6959 36.2734C13.0094 36.4421 13.2424 36.7034 13.3951 37.057C13.5479 37.4026 13.6242 37.8407 13.6242 38.3711V41.4695C13.6242 41.6624 13.572 41.8151 13.4675 41.9277C13.363 42.0321 13.2143 42.0844 13.0214 42.0844C12.8205 42.0844 12.6678 42.0321 12.5633 41.9277C12.4588 41.8151 12.4065 41.6624 12.4065 41.4695V38.4435C12.4065 37.9371 12.3061 37.5674 12.1051 37.3343C11.9123 37.1012 11.6068 36.9847 11.1889 36.9847C10.6986 36.9847 10.3048 37.1374 10.0074 37.4428C9.71804 37.7482 9.57337 38.1581 9.57337 38.6725V41.4695C9.57337 41.8794 9.36842 42.0844 8.95851 42.0844ZM17.1828 42.1085C16.7729 42.1085 16.4032 42.0281 16.0737 41.8674C15.7522 41.7066 15.499 41.4896 15.3141 41.2164C15.1293 40.9431 15.0368 40.6336 15.0368 40.288C15.0368 39.854 15.1454 39.5124 15.3624 39.2633C15.5874 39.0061 15.9531 38.8252 16.4595 38.7207C16.9739 38.6082 17.6651 38.552 18.5331 38.552H19.0997V39.2994H18.5452C17.9665 39.2994 17.5083 39.3276 17.1708 39.3838C16.8332 39.4401 16.5921 39.5365 16.4474 39.6732C16.3108 39.8018 16.2425 39.9826 16.2425 40.2157C16.2425 40.5211 16.3469 40.7703 16.5559 40.9632C16.7649 41.148 17.0542 41.2405 17.4239 41.2405C17.7213 41.2405 17.9825 41.1721 18.2076 41.0355C18.4326 40.8908 18.6095 40.6979 18.7381 40.4568C18.8747 40.2157 18.943 39.9384 18.943 39.625V38.2385C18.943 37.7804 18.8466 37.4508 18.6537 37.2499C18.4608 37.049 18.1433 36.9485 17.7012 36.9485C17.444 36.9485 17.1748 36.9807 16.8935 37.045C16.6202 37.1093 16.3349 37.2178 16.0375 37.3705C15.9009 37.4348 15.7843 37.4549 15.6879 37.4307C15.5914 37.4066 15.5151 37.3544 15.4588 37.274C15.4025 37.1856 15.3704 37.0932 15.3624 36.9967C15.3624 36.8922 15.3865 36.7918 15.4347 36.6953C15.491 36.5989 15.5834 36.5265 15.712 36.4783C16.0656 36.3095 16.4153 36.189 16.7609 36.1166C17.1065 36.0443 17.432 36.0081 17.7374 36.0081C18.2759 36.0081 18.718 36.0925 19.0636 36.2613C19.4172 36.4301 19.6784 36.6873 19.8472 37.0329C20.016 37.3785 20.1004 37.8246 20.1004 38.3711V41.4695C20.1004 41.6624 20.0522 41.8151 19.9557 41.9277C19.8593 42.0321 19.7186 42.0844 19.5338 42.0844C19.3569 42.0844 19.2163 42.0321 19.1118 41.9277C19.0073 41.8151 18.9551 41.6624 18.9551 41.4695V40.6859H19.0636C18.9993 40.9833 18.8787 41.2405 18.7019 41.4575C18.5331 41.6664 18.3201 41.8272 18.0629 41.9397C17.8057 42.0522 17.5124 42.1085 17.1828 42.1085ZM22.3924 42.0844C22.1914 42.0844 22.0387 42.0321 21.9342 41.9277C21.8298 41.8151 21.7775 41.6624 21.7775 41.4695V36.6471C21.7775 36.4462 21.8298 36.2935 21.9342 36.189C22.0387 36.0845 22.1834 36.0322 22.3683 36.0322C22.5612 36.0322 22.7058 36.0845 22.8023 36.189C22.9068 36.2935 22.959 36.4462 22.959 36.6471V37.5272H22.8384C22.967 37.045 23.2041 36.6793 23.5498 36.4301C23.8954 36.1809 24.3374 36.0363 24.8759 35.9961C25.0206 35.988 25.1331 36.0242 25.2135 36.1046C25.3019 36.185 25.3501 36.3095 25.3582 36.4783C25.3742 36.6471 25.3381 36.7837 25.2497 36.8882C25.1613 36.9847 25.0246 37.0409 24.8398 37.057L24.6107 37.0811C24.0883 37.1293 23.6904 37.2941 23.4171 37.5754C23.1439 37.8567 23.0072 38.2425 23.0072 38.7328V41.4695C23.0072 41.6624 22.955 41.8151 22.8505 41.9277C22.7541 42.0321 22.6013 42.0844 22.3924 42.0844ZM28.9534 42.1085C28.3104 42.1085 27.7559 41.9879 27.2897 41.7468C26.8316 41.4977 26.4739 41.148 26.2167 40.6979C25.9675 40.2398 25.843 39.6973 25.843 39.0704C25.843 38.4595 25.9675 37.925 26.2167 37.4669C26.4658 37.0088 26.8074 36.6511 27.2415 36.3939C27.6755 36.1367 28.1698 36.0081 28.7244 36.0081C29.1343 36.0081 29.5 36.0764 29.8215 36.2131C30.143 36.3417 30.4162 36.5346 30.6413 36.7918C30.8744 37.0409 31.0472 37.3464 31.1597 37.708C31.2802 38.0697 31.3405 38.4756 31.3405 38.9257C31.3405 39.0623 31.3003 39.1668 31.22 39.2392C31.1396 39.3035 31.019 39.3356 30.8583 39.3356H26.8074V38.5881H30.5207L30.3158 38.7569C30.3158 38.355 30.2555 38.0135 30.1349 37.7321C30.0224 37.4508 29.8496 37.2378 29.6165 37.0932C29.3915 36.9405 29.1101 36.8641 28.7726 36.8641C28.3948 36.8641 28.0733 36.9525 27.8081 37.1293C27.5509 37.3062 27.354 37.5513 27.2173 37.8648C27.0807 38.1782 27.0124 38.5439 27.0124 38.9619V39.0342C27.0124 39.7415 27.1772 40.276 27.5067 40.6377C27.8443 40.9913 28.3305 41.1681 28.9655 41.1681C29.2066 41.1681 29.4598 41.136 29.725 41.0717C29.9983 41.0074 30.2555 40.8989 30.4966 40.7462C30.6332 40.6658 30.7538 40.6296 30.8583 40.6377C30.9708 40.6457 31.0592 40.6819 31.1235 40.7462C31.1959 40.8105 31.2401 40.8908 31.2561 40.9873C31.2722 41.0837 31.2561 41.1842 31.2079 41.2887C31.1597 41.3851 31.0753 41.4736 30.9547 41.5539C30.6815 41.7388 30.364 41.8794 30.0023 41.9759C29.6406 42.0643 29.291 42.1085 28.9534 42.1085Z" fill="white" fill-opacity="0.41"/>
<path d="M6.9375 17.3438C8.85324 17.3438 10.4062 15.7907 10.4062 13.875C10.4062 11.9593 8.85324 10.4062 6.9375 10.4062C5.02176 10.4062 3.46875 11.9593 3.46875 13.875C3.46875 15.7907 5.02176 17.3438 6.9375 17.3438Z" stroke="#747171" stroke-width="1.73438" stroke-linecap="round" stroke-linejoin="round"/>
<path d="M19.0781 25.1484C20.9939 25.1484 22.5469 23.5954 22.5469 21.6797C22.5469 19.7639 20.9939 18.2109 19.0781 18.2109C17.1624 18.2109 15.6094 19.7639 15.6094 21.6797C15.6094 23.5954 17.1624 25.1484 19.0781 25.1484Z" stroke="#747171" stroke-width="1.73438" stroke-linecap="round" stroke-linejoin="round"/>
<path d="M19.0781 9.53906C20.9939 9.53906 22.5469 7.98605 22.5469 6.07031C22.5469 4.15457 20.9939 2.60156 19.0781 2.60156C17.1624 2.60156 15.6094 4.15457 15.6094 6.07031C15.6094 7.98605 17.1624 9.53906 19.0781 9.53906Z" stroke="#747171" stroke-width="1.73438" stroke-linecap="round" stroke-linejoin="round"/>
<path d="M16.1611 7.94592L9.85547 11.9996" stroke="#747171" stroke-width="1.73438" stroke-linecap="round" stroke-linejoin="round"/>
<path d="M9.85547 15.7504L16.1611 19.8041" stroke="#747171" stroke-width="1.73438" stroke-linecap="round" stroke-linejoin="round"/>
</svg>
