<svg width="24" height="24" viewBox="0 0 24 24" fill="none" xmlns="http://www.w3.org/2000/svg">
<path d="M20.3984 12.0002C20.3984 12.9943 19.5925 13.8002 18.5984 13.8002C17.6043 13.8002 16.7984 12.9943 16.7984 12.0002C16.7984 11.0061 17.6043 10.2002 18.5984 10.2002C19.5926 10.2002 20.3984 11.0061 20.3984 12.0002Z" fill="#B4B4B4"/>
<path d="M13.7984 12.0002C13.7984 12.9943 12.9926 13.8002 11.9984 13.8002C11.0043 13.8002 10.1984 12.9943 10.1984 12.0002C10.1984 11.0061 11.0043 10.2002 11.9984 10.2002C12.9926 10.2002 13.7984 11.0061 13.7984 12.0002Z" fill="#B4B4B4"/>
<path d="M5.39844 13.8002C6.39255 13.8002 7.19844 12.9943 7.19844 12.0002C7.19844 11.0061 6.39255 10.2002 5.39844 10.2002C4.40433 10.2002 3.59844 11.0061 3.59844 12.0002C3.59844 12.9943 4.40433 13.8002 5.39844 13.8002Z" fill="#B4B4B4"/>
</svg>
