<svg width="24" height="24" viewBox="0 0 24 24" fill="none" xmlns="http://www.w3.org/2000/svg">
<path d="M12.3208 20.1587H4.44991C4.26014 20.1587 4.07814 20.0833 3.94395 19.9491C3.80976 19.8149 3.73438 19.6329 3.73438 19.4431V11.5722C3.73437 10.4447 3.95647 9.32812 4.38798 8.28637C4.81948 7.24462 5.45195 6.29806 6.24927 5.50074C7.0466 4.70342 7.99315 4.07095 9.0349 3.63944C10.0767 3.20793 11.1932 2.98584 12.3208 2.98584H12.3208C13.4484 2.98584 14.5649 3.20793 15.6067 3.63944C16.6484 4.07095 17.595 4.70342 18.3923 5.50074C19.1896 6.29807 19.8221 7.24463 20.2536 8.28638C20.6851 9.32813 20.9072 10.4447 20.9072 11.5723V11.5723C20.9072 13.8495 20.0026 16.0335 18.3923 17.6438C16.7821 19.254 14.5981 20.1587 12.3208 20.1587Z" stroke="#747171" stroke-width="1.59284" stroke-linecap="round" stroke-linejoin="round"/>
</svg>
