<svg width="24" height="24" viewBox="0 0 24 24" fill="none" xmlns="http://www.w3.org/2000/svg">
<path d="M20.3984 11.9992C20.3984 12.9933 19.5925 13.7992 18.5984 13.7992C17.6043 13.7992 16.7984 12.9933 16.7984 11.9992C16.7984 11.0051 17.6043 10.1992 18.5984 10.1992C19.5926 10.1992 20.3984 11.0051 20.3984 11.9992Z" fill="#B4B4B4"/>
<path d="M13.7984 11.9992C13.7984 12.9933 12.9926 13.7992 11.9984 13.7992C11.0043 13.7992 10.1984 12.9933 10.1984 11.9992C10.1984 11.0051 11.0043 10.1992 11.9984 10.1992C12.9926 10.1992 13.7984 11.0051 13.7984 11.9992Z" fill="#B4B4B4"/>
<path d="M5.39844 13.7992C6.39255 13.7992 7.19844 12.9933 7.19844 11.9992C7.19844 11.0051 6.39255 10.1992 5.39844 10.1992C4.40433 10.1992 3.59844 11.0051 3.59844 11.9992C3.59844 12.9933 4.40433 13.7992 5.39844 13.7992Z" fill="#B4B4B4"/>
</svg>
